<?xml version="1.0" encoding="UTF-8"?>
<svg width="600" height="600" version="1.1" viewBox="0 0 600.00001 600.00001" xmlns="http://www.w3.org/2000/svg">
 <g transform="translate(0 -452.36)">
  <g transform="matrix(2.6164 0 0 2.6164 -396.77 -161.26)">
   <path d="m249.87 428.51c-15.844-2.8447-22.089-6.3277-36.526-20.371-9.9078-9.6372-14.964-16.982-19.135-27.798-7.8447-20.342-7.7634-42.004 0.22108-58.84 5.0349-10.617 21.389-22.649 35.78-26.324 3.3454-0.8543 5.5-1.9474 5.5-2.7904 0-2.4524-9.0413-6.114-15.743-6.3759-5.8574-0.22886-8.2236-1.4853-5.7159-3.0352 1.1028-0.68158 9.4406 0.58467 17.157 2.6056 2.0336 0.53262 5.0698 2.3407 6.747 4.0179 3.1793 3.1793 6.5555 3.5577 6.5555 0.73461 0-2.5288-10.522-15.382-14.95-18.263-3.0246-1.9677-3.471-2.5698-1.905-2.5698 2.7569 0 12.437 6.4228 20.215 13.413 4.6908 4.2155 6.7907 5.5062 8 4.9171 0.90185-0.43933 7.9397-0.85174 15.64-0.91647l14-0.11768 9.2981-9.3001c11.588-11.591 13.621-10.932 4.6878 1.5195-3.5451 4.9413-6.4547 9.291-6.4658 9.6661-0.0111 0.37504 4.0951 2.85 9.1249 5.5 5.537 2.9172 11.827 7.3002 15.944 11.109 6.0309 5.581 7.7236 6.5603 14.993 8.6737 7.752 2.2537 12.064 4.7232 10.674 6.1132-0.34419 0.34419-1.655-0.0951-2.913-0.97619-1.9346-1.355-10.842-2.3639-10.842-1.228 0 0.20572 1.1268 2.39 2.5039 4.854 5.6329 10.078 7.6639 24.282 5.5578 38.867-4.4752 30.993-23.686 55.028-51.562 64.51-6.6389 2.2583-10.042 2.7682-20 2.9968-6.6 0.15154-14.178-0.11556-16.84-0.59354z" fill="#df847b"/>
   <path d="m246.17 426.56c-4.6971-0.99123-10.547-2.8151-13-4.0531-10.352-5.2245-25.415-19.876-32.456-31.568-4.3407-7.2085-8.9591-21.252-10.398-31.618-1.7259-12.432 1.1813-30.363 6.377-39.332 2.9203-5.0414 11.556-13.261 17.728-16.873 5.0916-2.9799 24.705-9.784 25.963-9.0067 0.97665 0.6036 6.8273-2.3814 6.8273-3.4833 0-0.45385-2.2651-3.8173-5.0335-7.4743s-4.6512-6.6491-4.1838-6.6491 4.1543 2.9763 8.1932 6.614l7.3436 6.614 4.5903-0.83931c2.5247-0.46163 9.9903-0.85044 16.59-0.86404l12-0.0247 5.9022-6.25c3.2462-3.4375 6.2932-6.25 6.7711-6.25 0.47787 0-1.1448 3.0017-3.606 6.6704-2.4611 3.6687-4.2384 7.0529-3.9494 7.5205s3.8212 2.4142 7.8494 4.3257c8.2655 3.9223 18.636 11.352 21.779 15.603 1.1546 1.5616 3.6378 3.3472 5.5184 3.9678 2.4205 0.79883 3.1078 1.4398 2.3532 2.1944-0.75462 0.75462-0.22464 2.5486 1.8145 6.1421 5.9423 10.472 7.2581 20.618 5.0064 38.602-2.1173 16.911-10.561 36.368-19.897 45.851-6.9472 7.0558-12.758 11.137-22.326 15.681-13.674 6.4937-30.702 8.0979-47.756 4.499zm55.137-56.267c2.1534-4.1991 2.493-9.7996 0.70268-11.59-1.9803-1.9803-9.1341-1.4691-11.601 0.829-3.27 3.0465-5.3539 7.7184-5.0078 11.227 0.25242 2.5591 0.87742 3.275 3.4328 3.9323 1.7183 0.44199 3.6984 1.4954 4.4001 2.3409 1.1317 1.3636 1.5524 1.2793 3.7231-0.74601 1.346-1.2558 3.3034-3.9529 4.3499-5.9935zm-81.097-15.945c0-2.1399-5.0846-7.8444-6.9919-7.8444-3.1242 0-3.2692 1.7912-0.44482 5.4941 2.619 3.4338 7.4367 4.9563 7.4367 2.3503zm17.323-35.449c0.39989-2.4642 1.7342-4.5993 4.2182-6.75l3.6333-3.1457-2.704-5.3775-2.704-5.3776-6.1333 0.50936c-8.4191 0.69918-16.396 4.5066-23.152 11.05-4.2442 4.1108-5.5665 6.0535-5.3155 7.809 0.55821 3.903 4.168 4.8561 18.453 4.8721l13.119 0.0147 0.58489-3.6043zm42.15-24.353c0.57968-0.93794-4.3539-4.0426-6.424-4.0426-1.8912 0-1.1023 1.5041 1.7003 3.2418 3.2001 1.984 3.9173 2.1056 4.7237 0.80082z" fill="#de625a"/>
   <path d="m247.33 426.02c-3.5129-0.79306-8.4807-2.1373-11.04-2.9873-10.041-3.3351-29.261-22.052-35.669-34.736-13.001-25.733-12.056-58.992 2.121-74.685 4.3363-4.7997 5.4786-4.8028 2.562-7e-3 -3.279 5.3918-0.86233 11.193 6.4474 15.477 8.0271 4.7042 39.718 14.386 52.231 15.958 6.723 0.84416 14.894-1.0255 16.347-3.7406 0.92568-1.7296 0.34769-2.6787-4.2709-7.0129-2.9378-2.7569-7.3664-5.9114-9.8414-7.0099s-5.99-3.4081-7.811-5.1323c-3.1513-2.9838-3.6941-3.1327-11.25-3.0869-9.3181 0.0565-9.8466-0.7594-3.8285-5.9107l4.1105-3.5184-2.1105-2.9639c-1.1608-1.63-2.1105-3.2763-2.1105-3.6583 0-0.38198-0.71271-2.1964-1.5838-4.0321-1.1128-2.345-2.0793-3.1797-3.25-2.8068-1.3831 0.44062-1.4195 0.35608-0.21396-0.49755 0.79874-0.5656 1.798-0.81466 2.2206-0.55347 1.2191 0.75345 6.8271-2.5186 6.8271-3.9834 0-0.72885-2.3082-4.3742-5.1292-8.1007-2.8211-3.7266-4.5958-6.5977-3.9439-6.3804 1.4915 0.49717 14.627 11.664 21.888 18.608 3.0194 2.8875 5.8967 5.25 6.3939 5.25 0.49724 0 1.808-2.0436 2.9129-4.5413l2.0088-4.5413 3.4647 2.1413 3.4647 2.1413 4.2202-3.9004c2.3211-2.1452 6.8763-6.6902 10.122-10.1s6.3005-6.1996 6.7873-6.1996-0.91895 2.6565-3.1238 5.9033c-4.6587 6.8602-9.1906 18.717-10.357 27.097-0.17597 1.2644 2.0326 1.5343 14.059 1.7183 14.252 0.21805 14.267 0.21582 13.135-1.899-0.62324-1.1645-3.1477-4.0753-5.61-6.4683s-4.0736-4.351-3.5809-4.351c1.7971 0 10.424 6.0835 14.723 10.383 2.4265 2.4265 6.1248 4.9771 8.2184 5.6681 3.2421 1.07 3.5573 1.4136 2.1255 2.3168-1.5283 0.96403-1.4033 1.5461 1.375 6.402 2.5482 4.4537 5.7885 13.607 5.8339 16.481 0.0256 1.6158-1.8893 0.63662-2.4966-1.2766-0.71646-2.2574-5.1998-5.5984-6.1873-4.6109-0.34835 0.34835 0.5657 3.0033 2.0312 5.8998 3.1655 6.2566 3.365 11.053 1.1564 27.801-1.8312 13.886-4.7033 24.735-8.0686 30.477-6.2125 10.601-21.538 22.145-35.923 27.061-6.7057 2.2914-10.022 2.7837-20.5 3.0427-8.3241 0.20577-14.634-0.17272-18.887-1.1329zm51.298-41.589c1.424-1.6924 2.8302-4.2799 3.1249-5.75s1.1945-4.9625 1.9997-7.7608c2.2255-7.7343 1.9115-11.692-1.1723-14.776-1.45-1.45-3.7431-2.6364-5.0957-2.6364-5.5053 0-11.514 6.193-13.465 13.877-1.8594 7.3254 4.3075 20.123 9.6968 20.123 1.3655 0 3.3889-1.2677 4.9114-3.0771zm-76.611-25.123c0.66-0.66 1.2-2.9694 1.2-5.132 0-6.7517-5.7837-13.668-11.43-13.668-5.998 0-5.3006 8.7099 1.2672 15.824 3.8948 4.2189 6.7661 5.1723 8.9624 2.976zm77.29-23.55c8.1591-4.2324 10.004-6.2678 8.2412-9.0909-1.0202-1.6336-0.87444-1.7944 1.2573-1.3869 2.6468 0.50597 3.3898-1.4595 0.91128-2.4106-2.4472-0.93909-1.7417-1.9633 2.5-3.6295 2.2-0.86419 4-2.0154 4-2.5584 0-1.5572-18.298-2.6197-20.923-1.2149-2.5824 1.3821-2.3953 4.2325 0.30379 4.6274 1.0344 0.15135 2.3844 0.82259 3 1.4917 0.85412 0.92827 0.70469 1.0706-0.6307 0.60068-2.034-0.71571-2.0605-0.62534-0.79365 2.7066l0.95635 2.5154-4.6521-2.9503c-5.5835-3.541-6.8414-3.6566-7.6196-0.70029-0.55338 2.1022 0.05 11.705 0.91114 14.5 0.6852 2.224 5.1459 1.3346 12.538-2.5zm-54.09-35.75c-0.70675-0.85158-1.51-1.3233-1.785-1.0483s0.0782 1.1968 0.785 2.0483c0.70675 0.85158 1.51 1.3233 1.785 1.0483s-0.0782-1.1968-0.785-2.0483zm4.9135-3.6617c-0.79004-1.4762-1.4054-1.8626-1.6756-1.052-0.43908 1.3172 1.7006 4.6086 2.4856 3.8235 0.24119-0.24118-0.12334-1.4884-0.81005-2.7715z" fill="#cf1709"/>
   <path d="m293.21 324.34c-4.3242-2.8878-4.7734-2.9746-11.5-2.2212-7.9423 0.88952-16.267 0.94866-17.094 0.12144-0.30596-0.30596-0.67945-1.385-0.82999-2.3979-0.19687-1.3247-0.97444-1.7571-2.7703-1.5403-3.8928 0.4698-17.806-11.572-17.806-15.41 0-0.50623-0.92259-2.6418-2.0502-4.7456-1.1276-2.1039-1.5744-3.5312-0.99289-3.1718 0.58152 0.3594 1.7316 1.9574 2.5558 3.5512 1.4436 2.7916 10.037 8.759 11.093 7.7031 0.9686-0.96861-7.9246-18.217-12.434-24.116-2.4757-3.2386-3.9519-5.7051-3.2803-5.4813 1.5213 0.5071 14.587 11.604 21.923 18.62 3.0194 2.8875 5.8967 5.25 6.3939 5.25 0.49724 0 1.808-2.0436 2.9129-4.5413l2.0088-4.5413 3.4647 2.1413 3.4647 2.1413 4.2202-3.9004c2.3211-2.1452 6.8763-6.6902 10.122-10.1s6.3005-6.1996 6.7873-6.1996-0.91895 2.6565-3.1238 5.9033c-4.1682 6.138-6.3104 11.108-8.4468 19.597-0.69212 2.75-1.7962 5.9954-2.4534 7.2119l-1.195 2.2119 16.265-7e-3c13.696-6e-3 17.335 0.32385 23.044 2.0871 12.141 3.7504 6.3405 4.9866-13.377 2.8508-5.8289-0.63139-11.811-0.84363-13.293-0.47164-3.355 0.84204-4.3384 3.1534-2.3 5.4058 1.2914 1.4269 4.1446 7.3846 3.4161 7.1332-0.12389-0.0428-2.2502-1.4301-4.7252-3.083z" fill="#555139"/>
  </g>
 </g>
</svg>
